PathFileType	4	(X/Y/Z)	/Users/itak/Documents/Research/Walk-IL/dataset/trc/00569_00009.trc
DataRate	CameraRate	NumFrames	NumMarkers	Units	OrigDataRate	OrigDataStartFrame	OrigNumFrames
100.000000	100.000000	4	53	mm	100.000000	350	561
Frame#	Time	RPSI			LPSI			L3			STRN			T10			C7			CLAV			RBAK			LBAK			LSHO			LUPA			LAEL			LAOL			LWTS			LWPS			LFRA			LIFD			LHPS			LHTS			RSHO			RUPA			RAEL			RAOL			RWTS			RWPS			RFRA			RIFD			RHTS			RHPS			RBHD			LFHD			RFHD			LBHD			LHIP			RHIP			RASI			LASI			LKNE			LTHI			LANK			LTIP			LTOE			LMT1			LMT5			LHEE			RKNE			RTHI			RANK			RTIP			RTOE			RMT1			RMT5			RHEE			
		X1	Y1	Z1	X2	Y2	Z2	X3	Y3	Z3	X4	Y4	Z4	X5	Y5	Z5	X6	Y6	Z6	X7	Y7	Z7	X8	Y8	Z8	X9	Y9	Z9	X10	Y10	Z10	X11	Y11	Z11	X12	Y12	Z12	X13	Y13	Z13	X14	Y14	Z14	X15	Y15	Z15	X16	Y16	Z16	X17	Y17	Z17	X18	Y18	Z18	X19	Y19	Z19	X20	Y20	Z20	X21	Y21	Z21	X22	Y22	Z22	X23	Y23	Z23	X24	Y24	Z24	X25	Y25	Z25	X26	Y26	Z26	X27	Y27	Z27	X28	Y28	Z28	X29	Y29	Z29	X30	Y30	Z30	X31	Y31	Z31	X32	Y32	Z32	X33	Y33	Z33	X34	Y34	Z34	X35	Y35	Z35	X36	Y36	Z36	X37	Y37	Z37	X38	Y38	Z38	X39	Y39	Z39	X40	Y40	Z40	X41	Y41	Z41	X42	Y42	Z42	X43	Y43	Z43	X44	Y44	Z44	X45	Y45	Z45	X46	Y46	Z46	X47	Y47	Z47	X48	Y48	Z48	X49	Y49	Z49	X50	Y50	Z50	X51	Y51	Z51	X52	Y52	Z52	X53	Y53	Z53	

351	3.5	161.3763885498047	995.4484252929688	372.5260314941406	285.3533020019531	997.7354125976562	323.0602111816406	226.5628509521484	1097.856689453125	352.1661071777344	317.1123046875	1282.692260742188	568.7481689453125	222.49951171875	1223.413940429688	347.4372253417969	220.44775390625	1496.693237304688	404.3316040039062	304.8490295410156	1393.5478515625	554.1907348632812	117.5999298095703	1368.4638671875	369.8958129882812	289.255859375	1448.7998046875	333.1424865722656	406.0736694335938	1473.435546875	386.1010131835938	472.5563354492188	1347.410766601562	340.411376953125	511.3299865722656	1129.357666015625	344.5118713378906	422.2943420410156	1115.060546875	298.8469543457031	533.60693359375	893.5621948242188	459.3704833984375	572.0621337890625	869.4457397460938	383.8959350585938	533.9006958007812	1045.29736328125	363.3869018554688	535.2135620117188	724.1001586914062	457.8949890136719	571.57080078125	809.73876953125	397.4190673828125	561.319580078125	817.04150390625	464.8280334472656	103.8053970336914	1452.174072265625	518.095703125	35.97426986694336	1385.715698242188	527.1727905273438	-4.300257205963135	1097.153076171875	536.0762329101562	2.12251877784729	1077.78857421875	475.3150939941406	86.34529876708984	890.3594360351562	664.2847290039062	11.26501274108887	863.7023315429688	643.4690551757812	-6.646849155426025	1042.151489257812	550.7603149414062	98.28190612792969	719.3978271484375	685.479248046875	86.23918914794922	801.8160400390625	702.6741943359375	23.02711296081543	791.5570678710938	664.8984375	190.3519134521484	1674.697021484375	517.6846923828125	369.424072265625	1681.922607421875	626.1458129882812	228.4359283447266	1674.06591796875	653.9967651367188	355.7986145019531	1681.303955078125	493.1693725585938	455.7747497558594	927.3333129882812	396.2776489257812	102.0531997680664	925.7726440429688	535.49072265625	184.0757598876953	965.1130981445312	594.1185913085938	437.9163208007812	958.0372314453125	486.2348937988281	501.274169921875	493.3449096679688	519.3534545898438	499.4261779785156	661.7930297851562	479.7473449707031	358.6552429199219	179.0505523681641	164.3531799316406	430.5159606933594	339.212158203125	326.3150329589844	404.2577209472656	53.47076797485352	329.8046875	343.7348327636719	96.95327758789062	305.841796875	419.4196472167969	100.8941497802734	230.7145538330078	287.0503540039062	225.1620941162109	152.4019927978516	230.9505004882812	493.3320617675781	576.1600952148438	140.7122650146484	774.9925537109375	581.8870849609375	275.4237060546875	41.20592498779297	463.5845947265625	263.4644470214844	350.6008911132812	565.6979370117188	388.1387023925781	42.64547729492188	658.0270385742188	406.2628173828125	39.53715896606445	581.68408203125	302.7936096191406	43.81526184082031	593.5598754882812	307.966796875	32.38569259643555	394.3380126953125	
352	3.51	165.7500610351562	996.0303955078125	377.9984436035156	290.2716979980469	998.31787109375	329.91845703125	230.6725769042969	1098.524047851562	358.5727233886719	319.2791137695312	1283.431274414062	575.9987182617188	226.4131622314453	1224.07666015625	354.0873413085938	223.8236999511719	1497.327514648438	410.95703125	307.3572082519531	1394.278930664062	561.3124389648438	121.0438385009766	1369.1748046875	376.0848693847656	292.9669189453125	1449.354125976562	340.2170104980469	409.4739685058594	1473.9189453125	393.713134765625	476.0842590332031	1347.93798828125	348.0544128417969	514.72119140625	1129.910400390625	351.3658447265625	425.6116333007812	1115.821655273438	305.7722473144531	537.0158081054688	893.5518798828125	465.1688537597656	575.2213745117188	869.7369995117188	389.4120788574219	537.2330322265625	1045.729614257812	369.825927734375	538.7137451171875	724.1200561523438	462.9439392089844	574.8056640625	809.9983520507812	402.7137451171875	564.832763671875	817.0409545898438	470.145751953125	106.5553741455078	1453.098754882812	524.1204833984375	38.57572555541992	1386.760864257812	533.0599365234375	-1.529083609580994	1098.20654296875	543.290283203125	4.909965515136719	1078.336059570312	482.7131042480469	90.18466949462891	893.5029296875	673.8941650390625	15.2933988571167	866.07080078125	653.284912109375	-3.644302845001221	1043.316528320312	558.521484375	103.2319793701172	722.8922119140625	697.1052856445312	90.68341827392578	805.4735717773438	713.31787109375	27.5859489440918	794.2406005859375	675.5494384765625	193.4542083740234	1675.53564453125	524.4336547851562	372.2078247070312	1682.36279296875	633.3558959960938	231.1209411621094	1674.767211914062	660.8692626953125	358.920166015625	1681.843872070312	500.3616638183594	459.834716796875	928.3807983398438	405.4979553222656	104.0208053588867	925.9407958984375	539.94775390625	185.0870971679688	965.4905395507812	600.0473022460938	440.3584289550781	959.1270751953125	495.2257995605469	505.5509948730469	496.4303894042969	535.8761596679688	503.8307495117188	664.1376953125	493.2650756835938	375.2915344238281	171.2765808105469	186.8157806396484	440.8237609863281	336.7892150878906	345.232177734375	423.1690368652344	52.79613494873047	356.6138916015625	361.2904968261719	92.93135833740234	330.3119506835938	438.1826171875	97.77466583251953	256.4367980957031	302.2310485839844	214.2310028076172	172.3544158935547	231.4710388183594	492.9614868164062	577.7360229492188	142.1882476806641	774.8358764648438	585.5410766601562	275.5860595703125	41.27861404418945	463.5247192382812	263.8094787597656	350.3312377929688	566.6598510742188	388.1637878417969	42.55836868286133	658.0592651367188	406.2637634277344	39.50227737426758	581.7379760742188	302.7798156738281	43.79573059082031	593.5847778320312	308.0706176757812	32.47507858276367	394.3192749023438	
353	3.52	170.1056060791016	996.5342407226562	383.4693298339844	295.1619262695312	998.8392944335938	336.7679443359375	234.7677917480469	1099.089721679688	364.9483642578125	321.4059753417969	1284.066284179688	583.2216796875	230.29248046875	1224.654907226562	360.69189453125	227.1706695556641	1497.869995117188	417.5641174316406	309.81396484375	1394.9072265625	568.4191284179688	124.4742431640625	1369.787231445312	382.2387084960938	296.6646423339844	1449.822509765625	347.2704772949219	412.8486022949219	1474.312866210938	401.3367614746094	479.6198120117188	1348.389770507812	355.7157592773438	518.187744140625	1130.4013671875	358.2489624023438	429.0460815429688	1116.502197265625	312.6554565429688	540.485595703125	893.4810791015625	470.9990539550781	578.5015258789062	869.9837646484375	394.9888000488281	540.6557006835938	1046.109619140625	376.2985229492188	542.2510375976562	724.0849609375	468.0068359375	578.1383056640625	810.2067260742188	408.0659790039062	568.382568359375	816.9874267578125	475.5027770996094	109.2675247192383	1453.911987304688	530.1196899414062	41.15242385864258	1387.68359375	538.9031372070312	1.21659243106842	1099.138305664062	550.4032592773438	7.704470157623291	1078.779296875	490.0115051269531	93.93494415283203	896.5306396484375	683.3550415039062	19.23974990844727	868.3211669921875	662.9236450195312	-0.6736897230148315	1044.369018554688	566.165283203125	108.0881500244141	726.2889404296875	708.5534057617188	95.03325653076172	809.0249633789062	723.7880859375	32.04800415039062	796.825927734375	686.0120849609375	196.4822692871094	1676.269775390625	531.1444702148438	374.904052734375	1682.758911132812	640.5327758789062	233.7197570800781	1675.38916015625	667.6945190429688	361.9595031738281	1682.308227539062	507.5157775878906	463.8237609863281	929.35595703125	414.6759948730469	106.0361785888672	926.0555419921875	544.4053955078125	186.1726684570312	965.7568359375	605.9135131835938	442.807861328125	960.1388549804688	504.1783752441406	509.3377075195312	499.4458312988281	552.1047973632812	507.8924255371094	666.3848876953125	506.5973205566406	391.8069458007812	163.0311126708984	210.0862274169922	450.8817138671875	333.989013671875	364.3830871582031	441.4639587402344	52.12926483154297	384.3090209960938	378.4544677734375	88.79376983642578	355.6620483398438	456.51123046875	94.45430755615234	283.0454406738281	317.4346923828125	202.687255859375	193.0935363769531	231.9997711181641	492.5787353515625	579.3529663085938	143.7078857421875	774.6470947265625	589.1895141601562	275.7533264160156	41.36420059204102	463.4664611816406	264.1604919433594	350.0510559082031	567.669921875	388.1928405761719	42.46770858764648	658.0987548828125	406.2771301269531	39.4746208190918	581.8040161132812	302.7805786132812	43.77851867675781	593.606689453125	308.1666259765625	32.56640625	394.3055725097656	
354	3.53	174.4360656738281	996.955078125	388.9510803222656	300.0151062011719	999.2974853515625	343.612060546875	238.8454437255859	1099.558837890625	371.2915649414062	323.5053405761719	1284.600219726562	590.4200439453125	234.1412506103516	1225.151245117188	367.2525024414062	230.4920349121094	1498.323120117188	424.1591796875	312.2265625	1395.432739257812	575.5128173828125	127.8910980224609	1370.30615234375	388.3647766113281	300.348876953125	1450.20849609375	354.30810546875	416.2008972167969	1474.623291015625	408.97119140625	483.1618957519531	1348.769897460938	363.3991394042969	521.7197875976562	1130.830322265625	365.1824951171875	432.5894165039062	1117.10400390625	319.5174865722656	544.0008544921875	893.345458984375	476.8670043945312	581.8958129882812	870.1882934570312	400.6360778808594	544.15771484375	1046.437377929688	382.8263244628906	545.8163452148438	723.9871215820312	473.0763244628906	581.5664672851562	810.364990234375	413.4778442382812	571.9533081054688	816.8744506835938	480.9076538085938	111.9484558105469	1454.611450195312	536.1036987304688	43.71179962158203	1388.480834960938	544.7122192382812	3.939906120300293	1099.946899414062	557.4153442382812	10.50472450256348	1079.12109375	497.2085266113281	97.59365081787109	899.4266967773438	692.6517333984375	23.1030158996582	870.44384765625	672.3722534179688	2.265930652618408	1045.3076171875	573.6878051757812	112.8356094360352	729.5728759765625	719.815185546875	99.27715301513672	812.4502563476562	734.0714111328125	36.40279388427734	799.3034057617188	696.2797241210938	199.4368438720703	1676.89599609375	537.8218383789062	377.5118408203125	1683.112426757812	647.6859741210938	236.2312927246094	1675.931640625	674.4765625	364.9207458496094	1682.697387695312	514.6422729492188	467.757568359375	930.2769775390625	423.8394165039062	108.1143264770508	926.1226806640625	548.8853759765625	187.3569183349609	965.9134521484375	611.7217407226562	445.2690734863281	961.0758666992188	513.0836791992188	512.6849365234375	502.3849182128906	568.0174560546875	511.6389770507812	668.5323486328125	519.7347412109375	408.1108093261719	154.4469604492188	234.1700286865234	460.6761779785156	330.8727722167969	383.77685546875	458.9343872070312	51.54945755004883	412.8433227539062	395.0474548339844	84.65082550048828	381.8544006347656	474.2452087402344	91.00540161132812	310.5197143554688	332.5961303710938	190.7136840820312	214.6478118896484	232.5526580810547	492.1822204589844	581.0357666015625	145.2836151123047	774.429931640625	592.8527221679688	275.9205932617188	41.46270751953125	463.4125061035156	264.523193359375	349.7568969726562	568.748046875	388.2225036621094	42.37656402587891	658.1478271484375	406.3044128417969	39.45663452148438	581.8834838867188	302.7937927246094	43.76330184936523	593.626708984375	308.2510681152344	32.66219711303711	394.2967529296875	
